<svg width="245" height="39" viewBox="0 0 245 39" fill="none" xmlns="http://www.w3.org/2000/svg">
<g clip-path="url(#clip0_2007_662)">
<path d="M4.12734 24.2676V11.9242H0.893863C0.777107 11.9366 0.659015 11.9238 0.547804 11.8866C0.436593 11.8495 0.334933 11.7889 0.249897 11.7091C0.164861 11.6293 0.0984908 11.5323 0.0554037 11.4246C0.0123167 11.317 -0.00645259 11.2015 0.000401729 11.086V9.89145C-0.00645259 9.77596 0.0123167 9.66039 0.0554037 9.55277C0.0984908 9.44516 0.164861 9.34808 0.249897 9.2683C0.334933 9.18852 0.436593 9.12794 0.547804 9.0908C0.659015 9.05365 0.777107 9.04081 0.893863 9.05319H4.12734V4.19129C4.11508 4.01107 4.14172 3.83034 4.20551 3.66101C4.2693 3.49167 4.36879 3.33758 4.49742 3.20888C4.62606 3.08017 4.78092 2.97979 4.9518 2.91433C5.12268 2.84887 5.30571 2.81983 5.48881 2.82911H6.38227C6.56363 2.82286 6.7443 2.85415 6.91262 2.92096C7.08094 2.98777 7.23316 3.08861 7.35946 3.21698C7.48576 3.34535 7.58332 3.49839 7.64585 3.66621C7.70837 3.83403 7.73447 4.01291 7.72246 4.19129V9.05319H12.7641C12.8811 9.04452 12.9987 9.05978 13.1094 9.098C13.2201 9.13623 13.3216 9.1966 13.4075 9.27532C13.4934 9.35404 13.5619 9.44941 13.6086 9.55544C13.6553 9.66147 13.6792 9.77587 13.6789 9.89145V11.086C13.6792 11.2015 13.6553 11.3159 13.6086 11.422C13.5619 11.528 13.4934 11.6234 13.4075 11.7021C13.3216 11.7808 13.2201 11.8412 13.1094 11.8794C12.9987 11.9176 12.8811 11.9329 12.7641 11.9242H7.72246V24.2257C7.72246 26.3213 8.46702 27.1596 10.4241 27.1596H12.7641C12.8818 27.1476 13.0008 27.1605 13.113 27.1975C13.2252 27.2345 13.3281 27.2947 13.4147 27.3741C13.5013 27.4535 13.5697 27.5502 13.6153 27.6578C13.6609 27.7654 13.6825 27.8813 13.6789 27.9978V29.1295C13.6884 29.2557 13.6702 29.3825 13.6254 29.5012C13.5807 29.6199 13.5105 29.7276 13.4196 29.8172C13.3288 29.9067 13.2194 29.9758 13.0989 30.0199C12.9784 30.064 12.8497 30.0819 12.7216 30.0725H10.2965C5.78663 30.0725 4.12734 28.4589 4.12734 24.2676Z" fill="#29CFA8"/>
<path d="M22.1027 28.878L15.7208 10.8764C15.6043 10.5737 15.5327 10.2561 15.5081 9.93336C15.5081 9.38849 15.8484 9.05319 16.5292 9.05319H17.7843C18.5501 9.05319 18.8479 9.30467 19.1883 10.2687L25.166 27.7464L30.9096 10.2687C31.25 9.30467 31.5478 9.05319 32.3349 9.05319H33.3986C34.1218 9.05319 34.4197 9.38849 34.4197 9.93336C34.395 10.2561 34.3234 10.5737 34.2069 10.8764L24.8894 37.8474C24.82 38.0536 24.7095 38.2442 24.5644 38.4079C24.4194 38.5716 24.2426 38.7051 24.0446 38.8007C23.8465 38.8964 23.6311 38.9521 23.4109 38.9647C23.1907 38.9773 22.9701 38.9466 22.7621 38.8743C22.5453 38.8182 22.3436 38.7159 22.1713 38.5746C21.999 38.4333 21.8603 38.2565 21.7649 38.0567C21.6696 37.8568 21.6199 37.6388 21.6195 37.4179C21.619 37.1971 21.6678 36.9789 21.7623 36.7786L24.2512 30.1354H23.6981C22.8047 30.0725 22.4005 29.7791 22.1027 28.878Z" fill="#29CFA8"/>
<path d="M41.9501 39H41.3757C41.1759 39.0092 40.9763 38.9768 40.79 38.905C40.6036 38.8332 40.4348 38.7236 40.2943 38.5832C40.1538 38.4429 40.0449 38.275 39.9747 38.0904C39.9045 37.9059 39.8744 37.7088 39.8866 37.5121V14.0408L37.5253 11.7147C37.375 11.599 37.2534 11.4512 37.1698 11.2823C37.0862 11.1135 37.0427 10.9281 37.0427 10.7402C37.0427 10.5523 37.0862 10.3669 37.1698 10.1981C37.2534 10.0292 37.375 9.88136 37.5253 9.76572L38.0359 9.26277C38.1537 9.12945 38.2991 9.02257 38.4624 8.94932C38.6257 8.87608 38.8031 8.83818 38.9825 8.83818C39.1619 8.83818 39.3393 8.87608 39.5026 8.94932C39.6659 9.02257 39.8113 9.12945 39.9292 9.26277L42.5457 11.8404C43.2637 10.7561 44.2648 9.88235 45.4439 9.31079C46.623 8.73923 47.9366 8.49099 49.2467 8.59216C50.3988 8.48121 51.5615 8.62061 52.653 9.00051C53.7444 9.38042 54.738 9.99158 55.5636 10.7909C56.3892 11.5902 57.0267 12.5583 57.4312 13.6267C57.8357 14.6952 57.9974 15.8381 57.9048 16.9748V22.3606C58.0018 23.4855 57.8483 24.6177 57.455 25.6782C57.0617 26.7386 56.438 27.7016 55.6277 28.4999C54.8173 29.2983 53.8397 29.9126 52.7633 30.3001C51.6869 30.6875 50.5375 30.8387 49.3956 30.7432C48.2993 30.8147 47.2007 30.6428 46.1808 30.2402C45.1609 29.8376 44.2458 29.2145 43.503 28.417V37.5121C43.5199 37.7154 43.491 37.9198 43.4183 38.1108C43.3457 38.3017 43.231 38.4745 43.0826 38.6167C42.9342 38.7589 42.7557 38.867 42.5599 38.9333C42.3641 38.9995 42.1559 39.0223 41.9501 39ZM54.2671 22.5073V16.6185C54.3421 15.9123 54.255 15.1986 54.0123 14.5301C53.7695 13.8616 53.3773 13.2554 52.8646 12.7564C52.3519 12.2574 51.7319 11.8783 51.0504 11.6472C50.3689 11.4161 49.6434 11.3389 48.9276 11.4213C48.206 11.3292 47.4726 11.399 46.7822 11.6254C46.0918 11.8518 45.4622 12.229 44.9406 12.7287C44.419 13.2285 44.0187 13.8379 43.7698 14.5115C43.5209 15.185 43.4297 15.9053 43.503 16.6185V22.5073C43.4297 23.2204 43.5209 23.9407 43.7698 24.6143C44.0187 25.2878 44.419 25.8973 44.9406 26.397C45.4622 26.8968 46.0918 27.274 46.7822 27.5004C47.4726 27.7268 48.206 27.7965 48.9276 27.7045C49.6434 27.7869 50.3689 27.7097 51.0504 27.4786C51.7319 27.2475 52.3519 26.8684 52.8646 26.3693C53.3773 25.8703 53.7695 25.2641 54.0123 24.5956C54.255 23.9271 54.3421 23.2134 54.2671 22.5073Z" fill="#29CFA8"/>
<path d="M63.2019 22.6749V16.5766C63.2019 11.3374 66.4567 8.59213 72.0302 8.59213C77.6037 8.59213 80.8371 11.2117 80.8371 16.367V19.4476C80.8371 20.3487 80.4117 20.7678 79.5182 20.7678H66.7545V23.0521C66.7545 26.3004 68.4776 27.8721 72.3067 27.8721C75.7316 27.8721 77.1995 26.6357 77.1995 24.561V24.3095C77.1995 23.9323 77.3696 23.7646 77.7951 23.7646H79.9224C79.9967 23.7582 80.0715 23.7679 80.1415 23.793C80.2116 23.8182 80.2752 23.8581 80.3279 23.91C80.3806 23.962 80.4211 24.0246 80.4466 24.0936C80.4721 24.1627 80.482 24.2363 80.4755 24.3095V24.6029C80.4755 28.4589 77.8164 30.6174 72.2003 30.6174C66.3716 30.5336 63.2019 27.8302 63.2019 22.6749ZM66.7545 16.1155V18.2112H77.3909V16.1155C77.3909 12.8882 75.4551 11.3374 72.0089 11.3374C68.5627 11.3374 66.7545 12.9092 66.7545 16.1155Z" fill="#29CFA8"/>
<path d="M101.919 30.5336C96.9413 30.5336 94.1545 28.2074 94.1545 24.4771V24.058C94.1545 19.8667 96.8562 17.9387 102.472 17.9387C104.214 17.9486 105.949 18.1596 107.642 18.5674V15.3192C107.642 12.6367 106.131 11.3793 102.919 11.3793C99.7068 11.3793 98.324 12.5739 98.324 14.6695V14.9629C98.3384 15.057 98.3302 15.1531 98.3 15.2435C98.2698 15.3338 98.2185 15.416 98.1502 15.4833C98.0819 15.5505 97.9986 15.6011 97.9068 15.6308C97.8151 15.6606 97.7175 15.6687 97.622 15.6545H95.7287C95.6293 15.6649 95.5288 15.6529 95.4347 15.6194C95.3407 15.5859 95.2556 15.5318 95.1859 15.4611C95.1162 15.3905 95.0638 15.3051 95.0325 15.2115C95.0012 15.118 94.992 15.0186 95.0055 14.921V14.6695C95.0055 10.8345 97.6646 8.59213 102.962 8.59213C108.258 8.59213 111.279 10.9183 111.279 15.4868V25.1478L113.641 27.4739C113.791 27.5896 113.912 27.7374 113.996 27.9063C114.08 28.0751 114.123 28.2605 114.123 28.4484C114.123 28.6363 114.08 28.8217 113.996 28.9905C113.912 29.1594 113.791 29.3072 113.641 29.4229L113.13 29.9258C113.012 30.0591 112.867 30.166 112.703 30.2393C112.54 30.3125 112.363 30.3504 112.183 30.3504C112.004 30.3504 111.827 30.3125 111.663 30.2393C111.5 30.166 111.354 30.0591 111.237 29.9258L108.705 27.3691C107.932 28.4131 106.907 29.2496 105.721 29.8024C104.536 30.3552 103.229 30.6066 101.919 30.5336ZM102.43 27.7883C105.536 27.7883 107.642 26.0908 107.642 23.597V20.9565C106.042 20.5162 104.389 20.2906 102.728 20.2858C99.3451 20.2858 97.622 21.4594 97.622 23.8275V24.2885C97.622 26.5518 99.26 27.7883 102.43 27.7883Z" fill="#29CFA8"/>
<path d="M130.595 30.0725H129.191C129.046 30.0818 128.901 30.0605 128.765 30.01C128.629 29.9596 128.505 29.8812 128.403 29.78C128.3 29.6789 128.221 29.5573 128.169 29.4234C128.118 29.2896 128.096 29.1465 128.106 29.0038V14.0408L125.745 11.7147C125.594 11.599 125.473 11.4512 125.389 11.2823C125.305 11.1135 125.262 10.9281 125.262 10.7402C125.262 10.5523 125.305 10.3669 125.389 10.1981C125.473 10.0292 125.594 9.88135 125.745 9.76571L126.255 9.26276C126.373 9.12944 126.518 9.02256 126.682 8.94931C126.845 8.87607 127.022 8.83817 127.202 8.83817C127.381 8.83817 127.559 8.87607 127.722 8.94931C127.885 9.02256 128.031 9.12944 128.148 9.26276L130.68 11.7566C131.338 10.6923 132.283 9.82891 133.41 9.26277C134.537 8.69662 135.801 8.44994 137.062 8.55024C138.437 8.44841 139.814 8.71628 141.047 9.32526C142.279 9.93425 143.321 10.8615 144.061 12.0081C144.694 10.8982 145.633 9.98802 146.77 9.38335C147.908 8.77868 149.196 8.50432 150.485 8.59215C151.577 8.48922 152.679 8.62469 153.712 8.98894C154.745 9.35318 155.684 9.93725 156.462 10.6996C157.24 11.4619 157.838 12.3837 158.213 13.3995C158.588 14.4153 158.731 15.5 158.632 16.5766V29.0038C158.642 29.1446 158.62 29.2858 158.57 29.4182C158.521 29.5505 158.443 29.671 158.343 29.7718C158.242 29.8726 158.121 29.9515 157.988 30.0033C157.855 30.0551 157.712 30.0787 157.569 30.0725H156.101C155.956 30.0818 155.811 30.0605 155.675 30.01C155.539 29.9596 155.416 29.8812 155.313 29.78C155.21 29.6789 155.131 29.5573 155.08 29.4234C155.028 29.2896 155.007 29.1465 155.016 29.0038V16.5766C155.016 15.2871 154.496 14.0505 153.571 13.1387C152.645 12.2269 151.39 11.7147 150.081 11.7147C148.772 11.7147 147.517 12.2269 146.591 13.1387C145.665 14.0505 145.145 15.2871 145.145 16.5766V29.0038C145.155 29.1446 145.133 29.2858 145.083 29.4182C145.034 29.5505 144.956 29.671 144.856 29.7718C144.755 29.8726 144.634 29.9515 144.501 30.0033C144.368 30.0551 144.225 30.0787 144.082 30.0725H142.657C142.513 30.0787 142.37 30.0551 142.237 30.0033C142.104 29.9515 141.983 29.8726 141.883 29.7718C141.782 29.671 141.705 29.5505 141.655 29.4182C141.605 29.2858 141.584 29.1446 141.593 29.0038V16.5766C141.593 15.9353 141.465 15.3004 141.216 14.708C140.966 14.1156 140.601 13.5773 140.141 13.1239C139.681 12.6705 139.134 12.3108 138.533 12.0654C137.932 11.82 137.287 11.6937 136.636 11.6937C135.985 11.6937 135.341 11.82 134.739 12.0654C134.138 12.3108 133.592 12.6705 133.131 13.1239C132.671 13.5773 132.306 14.1156 132.057 14.708C131.808 15.3004 131.68 15.9353 131.68 16.5766V29.0038C131.693 29.1473 131.674 29.292 131.624 29.4275C131.574 29.563 131.494 29.686 131.391 29.788C131.287 29.8899 131.162 29.9682 131.025 30.0174C130.887 30.0665 130.741 30.0854 130.595 30.0725Z" fill="#29CFA8"/>
<path d="M164.653 22.6749V16.5766C164.653 11.3374 167.908 8.59213 173.481 8.59213C179.055 8.59213 182.288 11.2117 182.288 16.367V19.4476C182.288 20.3487 181.863 20.7678 180.969 20.7678H168.206V23.0521C168.206 26.3004 169.929 27.8721 173.758 27.8721C177.183 27.8721 178.651 26.6357 178.651 24.561V24.3095C178.651 23.9323 178.821 23.7646 179.246 23.7646H181.374C181.448 23.7582 181.523 23.7679 181.593 23.793C181.663 23.8182 181.726 23.8581 181.779 23.91C181.832 23.962 181.872 24.0246 181.898 24.0936C181.923 24.1627 181.933 24.2363 181.927 24.3095V24.6029C181.927 28.4589 179.268 30.6174 173.652 30.6174C167.823 30.5336 164.653 27.8302 164.653 22.6749ZM168.206 16.1155V18.2112H178.842V16.1155C178.842 12.8882 176.906 11.3374 173.46 11.3374C170.014 11.3374 168.206 12.9092 168.206 16.1155Z" fill="#29CFA8"/>
<path d="M208.007 27.4111C208.157 27.5267 208.279 27.6746 208.362 27.8434C208.446 28.0123 208.489 28.1977 208.489 28.3855C208.489 28.5734 208.446 28.7588 208.362 28.9277C208.279 29.0965 208.157 29.2444 208.007 29.36L207.496 29.863C207.378 29.9963 207.233 30.1032 207.07 30.1764C206.906 30.2497 206.729 30.2876 206.55 30.2876C206.37 30.2876 206.193 30.2497 206.029 30.1764C205.866 30.1032 205.721 29.9963 205.603 29.863L203.029 27.2434C202.306 28.3454 201.293 29.2334 200.098 29.8128C198.903 30.3923 197.57 30.6414 196.243 30.5336C195.092 30.6413 193.932 30.4994 192.843 30.118C191.754 29.7367 190.764 29.125 189.94 28.3261C189.117 27.5271 188.482 26.5603 188.078 25.4934C187.675 24.4266 187.514 23.2858 187.606 22.151V16.87C187.513 15.7458 187.669 14.6152 188.063 13.5565C188.458 12.4977 189.082 11.5362 189.891 10.7387C190.701 9.94119 191.677 9.32673 192.752 8.93797C193.826 8.54921 194.974 8.39545 196.115 8.48737C197.23 8.41389 198.348 8.59073 199.383 9.00457C200.418 9.41841 201.345 10.0584 202.093 10.8764V1.48791C202.077 1.29038 202.105 1.09186 202.174 0.905761C202.243 0.719665 202.352 0.550345 202.493 0.409262C202.634 0.268178 202.804 0.158624 202.992 0.0880145C203.18 0.017405 203.381 -0.0126118 203.582 -4.14276e-06H204.22C204.422 -0.0122604 204.624 0.0178282 204.813 0.0882674C205.001 0.158707 205.173 0.267888 205.316 0.408576C205.459 0.549264 205.569 0.718245 205.641 0.904322C205.712 1.0904 205.743 1.28932 205.731 1.48791V25.1478L208.007 27.4111ZM202.093 22.5072V16.6185C202.007 15.2618 201.399 13.9885 200.393 13.0578C199.387 12.1271 198.059 11.6091 196.679 11.6091C195.299 11.6091 193.971 12.1271 192.965 13.0578C191.959 13.9885 191.351 15.2618 191.265 16.6185V22.5072C191.351 23.864 191.959 25.1373 192.965 26.0679C193.971 26.9986 195.299 27.5167 196.679 27.5167C198.059 27.5167 199.387 26.9986 200.393 26.0679C201.399 25.1373 202.007 23.864 202.093 22.5072Z" fill="#29CFA8"/>
<path d="M214.452 25.2945V11.9242H211.325C211.208 11.9329 211.091 11.9176 210.98 11.8794C210.869 11.8412 210.768 11.7808 210.682 11.7021C210.596 11.6234 210.528 11.528 210.481 11.422C210.434 11.316 210.41 11.2016 210.411 11.086V9.89146C210.41 9.77588 210.434 9.66148 210.481 9.55546C210.528 9.44943 210.596 9.35406 210.682 9.27534C210.768 9.19662 210.869 9.13624 210.98 9.09802C211.091 9.05979 211.208 9.04453 211.325 9.0532H216.686C217.622 9.0532 218.048 9.43042 218.048 10.3525V25.022C218.048 26.6147 218.452 27.1177 219.856 27.1177H221.494C221.607 27.1116 221.721 27.1292 221.827 27.1692C221.933 27.2091 222.029 27.2707 222.109 27.3498C222.189 27.4288 222.252 27.5237 222.292 27.6281C222.333 27.7326 222.351 27.8443 222.345 27.9559V29.1295C222.362 29.2555 222.349 29.3835 222.308 29.5041C222.268 29.6246 222.2 29.7344 222.11 29.8253C222.019 29.9161 221.909 29.9856 221.788 30.0284C221.667 30.0713 221.537 30.0863 221.409 30.0725H219.601C215.729 30.0725 214.452 28.7104 214.452 25.2945ZM213.814 3.89791V1.94895C213.788 1.73634 213.811 1.52071 213.88 1.31764C213.949 1.11458 214.063 0.929153 214.213 0.774754C214.364 0.620355 214.548 0.50084 214.751 0.424843C214.954 0.348846 215.172 0.318263 215.389 0.335306H216.473C216.69 0.318263 216.908 0.348846 217.111 0.424843C217.314 0.50084 217.498 0.620355 217.649 0.774754C217.799 0.929153 217.913 1.11458 217.982 1.31764C218.051 1.52071 218.074 1.73634 218.048 1.94895V3.89791C218.07 4.10889 218.045 4.32217 217.975 4.52261C217.904 4.72306 217.79 4.90576 217.639 5.05775C217.489 5.20975 217.307 5.32732 217.105 5.40212C216.904 5.47693 216.688 5.50713 216.473 5.4906H215.389C215.174 5.50713 214.958 5.47693 214.757 5.40212C214.555 5.32732 214.373 5.20975 214.222 5.05775C214.072 4.90576 213.958 4.72306 213.887 4.52261C213.817 4.32217 213.792 4.10889 213.814 3.89791Z" fill="#29CFA8"/>
<path d="M232.875 30.5336C227.876 30.5336 225.089 28.2074 225.089 24.4771V24.058C225.089 19.8667 227.791 17.9387 233.428 17.9387C235.163 17.9487 236.891 18.1597 238.576 18.5674V15.3192C238.576 12.6367 237.066 11.3793 233.853 11.3793C230.641 11.3793 229.258 12.5739 229.258 14.6695V14.9629C229.272 15.055 229.264 15.149 229.235 15.2375C229.206 15.3261 229.157 15.4069 229.091 15.4738C229.025 15.5406 228.945 15.5916 228.856 15.623C228.767 15.6543 228.672 15.6651 228.578 15.6545H226.599C226.5 15.6649 226.399 15.6529 226.305 15.6194C226.211 15.5859 226.126 15.5318 226.056 15.4611C225.987 15.3905 225.934 15.3051 225.903 15.2115C225.872 15.118 225.863 15.0186 225.876 14.921V14.6695C225.876 10.8345 228.535 8.59213 233.811 8.59213C239.086 8.59213 242.15 10.9183 242.15 15.4868V25.1478L244.511 27.4739C244.661 27.5896 244.783 27.7374 244.867 27.9063C244.95 28.0751 244.994 28.2605 244.994 28.4484C244.994 28.6363 244.95 28.8217 244.867 28.9905C244.783 29.1594 244.661 29.3072 244.511 29.4229L244.001 29.9258C243.885 30.0587 243.741 30.1653 243.58 30.2384C243.418 30.3115 243.242 30.3494 243.065 30.3494C242.887 30.3494 242.711 30.3115 242.549 30.2384C242.388 30.1653 242.244 30.0587 242.128 29.9258L239.618 27.4739C238.842 28.4967 237.818 29.3123 236.641 29.8466C235.463 30.3809 234.169 30.617 232.875 30.5336ZM233.385 27.7883C236.47 27.7883 238.576 26.0908 238.576 23.597V20.9565C236.983 20.5163 235.337 20.2907 233.683 20.2858C230.301 20.2858 228.578 21.4594 228.578 23.8275V24.2885C228.578 26.5518 230.194 27.7883 233.385 27.7883Z" fill="#29CFA8"/>
</g>
<defs>
<clipPath id="clip0_2007_662">
<rect width="245" height="39" fill="white"/>
</clipPath>
</defs>
</svg>
