<svg width="58" height="65" viewBox="0 0 58 65" fill="none" xmlns="http://www.w3.org/2000/svg">
<path d="M28.5 16.2501C32.9255 16.2501 36.9474 18.0223 39.8899 20.9118C39.9178 20.9499 39.9331 20.9956 39.9686 21.0311C40.0067 21.0692 40.0549 21.087 40.0981 21.1175C42.5788 23.6438 44.252 26.9827 44.6557 30.7531C44.8258 32.3273 46.1284 33.5156 47.6874 33.5156H50.7495C51.6077 33.5156 52.4328 33.1525 53.0118 32.5203C53.5805 31.8982 53.8649 31.0654 53.7913 30.2326C52.6157 16.9758 41.672 7.1173 28.5277 7.1147C28.5176 7.1147 28.5099 7.10962 28.4998 7.10962C28.4896 7.10962 28.4846 7.1147 28.4744 7.1147C27.9336 7.1147 27.3902 7.12739 26.8443 7.16294C14.352 7.95516 4.18597 17.9562 3.19277 30.4206C2.65957 37.1188 4.71878 43.626 8.99201 48.7525C9.52521 49.3924 10.3123 49.7834 11.1502 49.824C11.201 49.8265 11.2518 49.8291 11.3026 49.8291C12.1024 49.8291 12.8768 49.5142 13.4506 48.9531L15.6317 46.8177C16.759 45.7157 16.8479 43.9384 15.8399 42.6866C13.4912 39.7718 12.2497 36.2501 12.2497 32.4998C12.2497 29.0315 13.372 25.6599 15.4134 22.8818L22.0505 29.5189C21.6239 30.4508 21.3904 31.4639 21.3904 32.4998C21.3904 36.42 24.5794 39.6095 28.5001 39.6095C32.4207 39.6095 35.6098 36.4204 35.6098 32.4998C35.6098 28.5791 32.4207 25.3901 28.5001 25.3901C27.4641 25.3901 26.4511 25.6237 25.5218 26.0527L18.8846 19.4156C21.6598 17.3717 25.0317 16.2494 28.5001 16.2494L28.5 16.2501ZM40.7005 18.8653C37.6917 16.1764 33.789 14.5006 29.5159 14.267V9.16096C35.1983 9.39202 40.3807 11.634 44.3184 15.2446L40.7005 18.8653ZM51.768 30.4106C51.7909 30.6797 51.702 30.9412 51.5141 31.1469C51.3161 31.3627 51.0393 31.4846 50.7498 31.4846H47.6878C47.1698 31.4846 46.7356 31.0783 46.6772 30.535C46.2557 26.5918 44.6003 23.0678 42.1272 20.3079L45.753 16.6821C49.0918 20.3282 51.2932 25.0682 51.768 30.4106ZM10.2187 32.5002C10.2187 36.6591 11.6533 40.7292 14.2558 43.9616C14.6062 44.3958 14.5859 44.9976 14.2101 45.3658L12.029 47.5011C11.8233 47.7017 11.5314 47.8084 11.2521 47.7957C10.9728 47.7804 10.7239 47.6586 10.5513 47.4504C6.62082 42.7379 4.72672 36.7455 5.21929 30.5809C6.13078 19.1169 15.4847 9.92066 26.9741 9.18941C27.1468 9.17926 27.3144 9.17672 27.4845 9.1691V14.2624C23.8409 14.4656 20.3371 15.758 17.4348 17.9669L17.026 17.5581C16.0713 16.6034 14.5174 16.6034 13.5577 17.5632C12.603 18.5179 12.603 20.0718 13.5577 21.0239L13.9665 21.4327C11.5544 24.6065 10.2187 28.4936 10.2187 32.5002ZM26.8925 30.2988C26.9509 30.3572 27.022 30.3877 27.088 30.4283C27.1159 30.4461 27.1413 30.469 27.1693 30.4842C27.2429 30.5197 27.3191 30.54 27.4003 30.5553C27.4562 30.568 27.507 30.5832 27.5628 30.5857C27.6238 30.5883 27.6822 30.5756 27.7431 30.568C27.8015 30.5604 27.8599 30.568 27.9157 30.5527C28.1062 30.4969 28.3017 30.4689 28.4997 30.4689C29.6195 30.4689 30.531 31.3804 30.531 32.5002C30.531 33.62 29.6195 34.5314 28.4997 34.5314C27.38 34.5314 26.4685 33.62 26.4685 32.5002C26.4685 32.3021 26.4964 32.1041 26.5523 31.9188C26.5675 31.8629 26.5599 31.807 26.5675 31.7512C26.5777 31.6852 26.5878 31.6242 26.5853 31.5607C26.5827 31.5074 26.5675 31.4592 26.5548 31.4084C26.537 31.3246 26.5193 31.2459 26.4786 31.1672C26.4634 31.1393 26.4431 31.1164 26.4253 31.0885C26.3847 31.0225 26.3517 30.9488 26.2933 30.8904L14.9969 19.5915C14.8344 19.429 14.8344 19.1649 15.002 18.9973C15.1645 18.8348 15.4286 18.8348 15.5911 18.9973L26.8925 30.2988ZM28.4998 27.4221C31.3004 27.4221 33.5779 29.6996 33.5779 32.5002C33.5779 35.3008 31.3004 37.5783 28.4998 37.5783C25.6992 37.5783 23.4216 35.3008 23.4216 32.5002C23.4216 32.0203 23.4927 31.5455 23.6222 31.091L24.4779 31.9467C24.4525 32.1295 24.4373 32.3123 24.4373 32.5002C24.4373 34.7396 26.2603 36.5627 28.4998 36.5627C30.7392 36.5627 32.5623 34.7396 32.5623 32.5002C32.5623 30.2607 30.7392 28.4377 28.4998 28.4377C28.3119 28.4377 28.1291 28.4529 27.9437 28.4783L27.0906 27.6252C27.5451 27.4931 28.0199 27.4221 28.4998 27.4221Z" fill="#29CFA8"/>
</svg>
