<svg width="49" height="49" viewBox="0 0 49 49" fill="none" xmlns="http://www.w3.org/2000/svg">
<path d="M11.3483 7.72733C11.0306 7.97616 10.5693 7.91874 10.3205 7.60101C10.0716 7.28327 10.1291 6.822 10.4468 6.57313C13.293 4.34706 16.6463 2.81008 20.2164 2.12295C23.656 1.46258 27.3023 1.58699 30.8969 2.63976C36.9337 4.40645 41.6848 8.45459 44.4812 13.5692C47.2776 18.6819 48.1237 24.8622 46.357 30.8971C45.8497 32.6274 45.1569 34.2505 44.307 35.7492C43.4304 37.2977 42.3853 38.716 41.2043 39.9869C40.9287 40.2836 40.4636 40.3008 40.1669 40.0252C39.8702 39.7496 39.853 39.2845 40.1286 38.9878C41.2349 37.7972 42.2111 36.4708 43.0304 35.0257C43.7118 33.8256 44.2841 32.5412 44.7301 31.1861L36.7847 28.8586C35.6133 32.4953 33.7108 35.7759 31.2644 38.517C33.0617 39.5927 34.7843 40.812 36.4153 42.1652C36.9378 41.813 37.447 41.4359 37.937 41.0378C38.2509 40.7832 38.7121 40.8292 38.9686 41.1431C39.2232 41.457 39.1773 41.9182 38.8634 42.1748C36.0057 44.4946 32.6061 46.1024 28.9732 46.8336C25.4743 47.538 21.757 47.4288 18.0957 46.357C12.0589 44.5903 7.30982 40.5421 4.51143 35.4275C1.715 30.3149 0.867056 24.1345 2.63375 18.0997C2.99742 16.8536 3.45872 15.6649 4.00232 14.5433C4.5593 13.391 5.21007 12.3001 5.93743 11.2798C6.17094 10.9506 6.63034 10.8721 6.95952 11.1076C7.28874 11.3411 7.36722 11.8005 7.13179 12.1297C6.45421 13.0829 5.84554 14.103 5.323 15.1807C4.9153 16.0248 4.55737 16.9033 4.25686 17.8106L12.2022 20.1381C13.3736 16.5014 15.2762 13.2208 17.7206 10.4817C15.9233 9.40599 14.2006 8.18864 12.5697 6.83349C12.1486 7.11678 11.739 7.41537 11.339 7.72735L11.3483 7.72733ZM19.3642 26.6404C19.77 26.6404 20.0992 26.9696 20.0992 27.3754C20.0992 27.7811 19.77 28.1104 19.3642 28.1104C18.3709 28.1104 17.4674 27.7046 16.8147 27.0499L16.7726 27.004C16.1429 26.3532 15.7543 25.4689 15.7543 24.4985C15.7543 23.507 16.1601 22.6036 16.8167 21.949C17.4674 21.2944 18.3709 20.8867 19.3643 20.8867H24.2932C25.2847 20.8867 26.1881 21.2924 26.8408 21.9471C27.4973 22.5997 27.9031 23.5032 27.9031 24.4985C27.9031 24.9043 27.5739 25.2335 27.1681 25.2335C26.7623 25.2335 26.4331 24.9043 26.4331 24.4985C26.4331 23.9109 26.1919 23.3749 25.8034 22.9883C25.4167 22.5998 24.8808 22.3586 24.2913 22.3586H19.3624C18.7748 22.3586 18.2388 22.5997 17.8522 22.9883C17.4636 23.375 17.2224 23.909 17.2224 24.4985C17.2224 25.0727 17.4502 25.5933 17.8177 25.978L17.8521 26.0106C18.2407 26.3991 18.7747 26.6403 19.3623 26.6403L19.3642 26.6404ZM29.6332 22.3605C29.2274 22.3605 28.8982 22.0313 28.8982 21.6255C28.8982 21.2197 29.2274 20.8905 29.6332 20.8905C30.6227 20.8905 31.5262 21.2963 32.1808 21.9509L32.1846 21.9547C32.8373 22.6093 33.2431 23.5109 33.2431 24.5004C33.2431 25.49 32.8373 26.3935 32.1827 27.048L32.1789 27.0519C31.5243 27.7046 30.6227 28.1104 29.6332 28.1104H24.7043C23.7109 28.1104 22.8074 27.7046 22.1528 27.05C21.5002 26.3973 21.0924 25.4938 21.0924 24.4985C21.0924 24.0928 21.4216 23.7635 21.8274 23.7635C22.2332 23.7635 22.5624 24.0928 22.5624 24.4985C22.5624 25.0861 22.8036 25.6221 23.1922 26.0087C23.5807 26.3973 24.1147 26.6385 24.7024 26.6385H29.6313C30.2208 26.6385 30.7567 26.3992 31.1414 26.0126C31.53 25.624 31.7712 25.0881 31.7712 24.4986C31.7712 23.9091 31.5319 23.3731 31.1453 22.9884C30.7568 22.5998 30.2208 22.3587 29.6313 22.3587L29.6332 22.3605ZM30.238 39.6119L30.0677 39.7823C27.4971 42.305 24.4288 44.2803 21.0389 45.5319C23.6344 45.9626 26.2202 45.8975 28.6913 45.4018C30.9537 44.9462 33.1204 44.127 35.1054 42.9862C33.5588 41.7363 31.932 40.6091 30.238 39.6119ZM18.7593 9.39069L18.9296 9.22033C21.5002 6.69762 24.5686 4.72228 27.9584 3.47067C25.4299 3.05149 22.907 3.10317 20.4918 3.56638C18.1624 4.01427 15.9305 4.8488 13.892 6.01829C15.4385 7.27009 17.0654 8.3954 18.7593 9.39069ZM20.0895 10.1391C22.3271 11.343 24.6699 12.3268 27.0818 13.081L29.6065 4.45992C26.0195 5.57966 22.7734 7.5454 20.0916 10.139L20.0895 10.1391ZM28.4867 13.4925C30.9252 14.1567 33.4269 14.5931 35.9592 14.7864C35.8903 14.4917 35.8156 14.1988 35.7352 13.9079C35.628 13.5193 35.8558 13.1135 36.2463 13.0063C36.6349 12.8992 37.0406 13.1269 37.1478 13.5174C37.2703 13.9653 37.3832 14.417 37.4828 14.8726C39.4485 14.9472 41.4257 14.8764 43.4029 14.6582L43.1981 14.2735C40.9702 10.2022 37.4196 6.85241 32.9292 4.9272C33.2795 5.3904 33.6125 5.86511 33.9284 6.34933C34.7342 7.5877 35.4309 8.89311 36.007 10.2483C36.1659 10.6196 35.9917 11.0522 35.6185 11.211C35.2472 11.3699 34.8146 11.1957 34.6557 10.8225C34.1121 9.54576 33.4575 8.31503 32.6976 7.14936C32.1847 6.36076 31.6219 5.60087 31.0114 4.87547L28.4867 13.4965L28.4867 13.4925ZM44.0692 16.0555C41.9656 16.3158 39.8563 16.4115 37.7624 16.3483C37.9978 17.8202 38.1107 19.3209 38.0973 20.8291C38.0763 23.036 37.7815 25.264 37.2035 27.4574L45.1488 29.7849C46.3624 25.0495 45.8818 20.2513 44.0692 16.0555ZM36.2654 16.2775C33.49 16.0938 30.7451 15.6306 28.077 14.8994L27.0224 18.4978C26.9095 18.8864 26.5037 19.1103 26.1151 18.9974C25.7265 18.8844 25.5026 18.4787 25.6156 18.0901L26.6702 14.4859C24.0269 13.661 21.4659 12.5719 19.0291 11.2301C16.6251 13.8581 14.7569 17.0278 13.6161 20.5514L14.1826 20.7179C14.5712 20.8308 14.7951 21.2366 14.6822 21.6252C14.5693 22.0137 14.1635 22.2377 13.7749 22.1247L13.2045 21.9582C13.149 22.1726 13.0954 22.3908 13.0437 22.6147C12.9384 23.0664 12.8427 23.5258 12.7624 23.9871C12.6934 24.3872 12.3125 24.6532 11.9125 24.5843C11.5124 24.5154 11.2464 24.1345 11.3153 23.7345C11.3995 23.254 11.499 22.7678 11.6139 22.2817C11.6694 22.0425 11.7306 21.7975 11.7976 21.5467L3.85424 19.2211C2.64071 23.9584 3.12115 28.757 4.93376 32.9509C7.03733 32.6906 9.14472 32.5949 11.2386 32.6581C10.9764 31.0235 10.8673 29.3582 10.9132 27.6816C10.9247 27.2778 11.2616 26.9581 11.6655 26.9696C12.0693 26.9811 12.389 27.318 12.3775 27.7219C12.3296 29.4101 12.4521 31.0887 12.7354 32.7292C15.5108 32.9129 18.2557 33.3761 20.9238 34.1073L21.9784 30.5069C22.0913 30.1184 22.4971 29.8944 22.8857 30.0074C23.2743 30.1203 23.4982 30.5261 23.3853 30.9147L22.3287 34.5189C24.9701 35.3438 27.533 36.4329 29.9698 37.7727C32.3738 35.1447 34.242 31.9751 35.3848 28.4515L34.8182 28.285C34.4297 28.172 34.2057 27.7662 34.3187 27.3777C34.4316 26.9891 34.8374 26.7652 35.226 26.8781L35.7964 27.0446C36.3362 24.9813 36.6118 22.8873 36.6328 20.8162C36.6481 19.2869 36.5237 17.7652 36.2653 16.2761L36.2654 16.2775ZM28.9115 38.8655C26.674 37.6616 24.333 36.6778 21.9192 35.9236L19.3946 44.5427C22.9815 43.4249 26.2276 41.4572 28.9094 38.8636L28.9115 38.8655ZM20.5144 35.514C18.0758 34.8498 15.5742 34.4134 13.0419 34.2201C13.2773 35.2135 13.5721 36.1916 13.9281 37.1448C14.8717 39.6772 16.2345 42.0448 17.9897 44.1352L20.5144 35.5161V35.514ZM11.5204 34.134C9.55469 34.0593 7.57744 34.1302 5.60024 34.3484L5.80504 34.7331C8.03111 38.8043 11.5836 42.1556 16.074 44.0794C14.5887 42.1155 13.4115 39.9469 12.5559 37.654C12.1291 36.5075 11.7827 35.3303 11.5204 34.1321L11.5204 34.134ZM9.04362 9.829C8.76416 10.1199 8.29906 10.1295 8.00619 9.85006C7.71525 9.57061 7.70568 9.1055 7.98513 8.81263L8.06552 8.72841C8.34497 8.43747 8.81008 8.4279 9.10295 8.70735C9.39389 8.9868 9.40346 9.45191 9.12401 9.74478L9.04362 9.829Z" fill="#29CFA8"/>
</svg>
