<svg width="50" height="50" viewBox="0 0 50 50" fill="none" xmlns="http://www.w3.org/2000/svg">
<path d="M44.8261 7.15454H39.2871V3.25024C39.2871 2.83618 38.9511 2.50024 38.5371 2.50024H11.4631C11.049 2.50024 10.7131 2.83618 10.7131 3.25024V7.15454H5.17407C4.76001 7.15454 4.42407 7.49048 4.42407 7.90454V17.389C4.42407 18.7816 4.67212 20.1214 5.16237 21.3675C6.84207 25.6566 9.99637 28.42 13.4649 28.6935C15.8184 32.6408 19.1444 35.3205 22.7909 36.0745C22.7928 36.0745 22.7948 36.0765 22.7987 36.0765C23.2752 36.1761 23.7635 36.2406 24.2518 36.2738V40.5492C23.7674 40.5746 23.2889 40.6175 22.8319 40.6917C18.7049 41.3558 15.8219 43.8323 15.8044 46.7227C15.8044 46.7325 15.8024 46.7403 15.8024 46.7481C15.8024 47.0587 15.9919 47.3243 16.2614 47.4395C16.3474 47.4786 16.447 47.5001 16.5505 47.5001H16.5563H33.4448H33.4507C33.5542 47.5001 33.6538 47.4786 33.7437 47.4415C34.0132 47.3282 34.2027 47.0606 34.2027 46.7501C34.2027 46.7403 34.2007 46.7325 34.2007 46.7247C34.1831 43.836 31.2983 41.3577 27.1772 40.6952C26.7182 40.619 26.2377 40.578 25.7533 40.5507V36.2753C26.2436 36.2421 26.7299 36.1776 27.2064 36.078C27.2084 36.078 27.2104 36.076 27.2143 36.076C30.8588 35.3221 34.1848 32.6424 36.5403 28.695C40.009 28.4216 43.1633 25.6599 44.8428 21.371C45.333 20.123 45.5811 18.7831 45.5811 17.3906L45.5772 7.90409C45.5752 7.49003 45.2393 7.15409 44.8252 7.15409L44.8261 7.15454ZM6.55857 20.8205C6.1367 19.7483 5.92382 18.594 5.92382 17.3889L5.92187 8.65439H10.7109V19.3929C10.7109 21.4612 11.0801 23.4554 11.8105 25.3204C12.041 25.9102 12.2968 26.4766 12.5644 27.0274C10.0781 26.3809 7.84972 24.1213 6.55857 20.8205ZM32.5936 46H17.4061C17.9002 44.1953 20.1287 42.6485 23.0741 42.1739C24.3065 41.9708 25.6952 41.9688 26.9335 42.1739C29.871 42.6466 32.1016 44.1954 32.5936 46ZM26.9001 34.6075H26.8962C25.6559 34.8673 24.3434 34.8673 23.1013 34.6075H23.0974C18.986 33.7599 15.2889 30.0841 13.2069 24.7715C12.5467 23.0821 12.2108 21.2715 12.2108 19.3905L12.2127 4.00004H37.7867V19.3905C37.7867 21.2714 37.4508 23.0819 36.7906 24.7715C34.7086 30.084 31.0111 33.76 26.9001 34.6075ZM44.0761 17.3885C44.0761 18.5936 43.8612 19.7479 43.4413 20.8202C42.1484 24.121 39.9218 26.3807 37.4333 27.0272C37.7009 26.4744 37.9568 25.91 38.1872 25.3201C38.9177 23.4549 39.2868 21.4607 39.2868 19.3926V8.65414H44.0759L44.0761 17.3885Z" fill="#29CFA8"/>
<path d="M32.0861 14.785L27.9142 14.1796L26.049 10.3983C25.8497 9.99598 25.4474 9.74597 25.0001 9.74597C24.5509 9.74597 24.1505 9.99597 23.9513 10.3983L22.086 14.1796L17.9141 14.785C17.4708 14.8495 17.1094 15.1542 16.9688 15.5819C16.8301 16.0097 16.9434 16.4686 17.2657 16.7811L20.2833 19.7245L19.5704 23.8788C19.5118 24.2206 19.6055 24.5663 19.8282 24.8299C20.1739 25.2401 20.7911 25.3631 21.2696 25.1131L25 23.1502L28.7305 25.1112C28.8985 25.201 29.0879 25.2459 29.2754 25.2459C29.6211 25.2459 29.9473 25.0936 30.1719 24.828C30.3926 24.5643 30.4883 24.2186 30.4297 23.8768L29.7168 19.7225L32.7344 16.7811C33.0567 16.4686 33.17 16.0077 33.0313 15.5819C32.8926 15.1561 32.5314 14.8495 32.0861 14.785ZM28.5451 18.7694C28.2678 19.039 28.1428 19.4257 28.2072 19.8046L28.8361 23.4706L25.5432 21.7401C25.3752 21.6522 25.1877 21.6054 24.9983 21.6054C24.8088 21.6054 24.6213 21.6522 24.4534 21.7401L21.1604 23.4706L21.7893 19.8046C21.8557 19.4257 21.7288 19.039 21.4514 18.7694L18.7874 16.1737L22.471 15.6386C22.8518 15.5839 23.18 15.3437 23.3518 14.998L25.0003 11.662L26.6468 14.9999C26.8187 15.3437 27.1468 15.582 27.5276 15.6386L31.2093 16.1737L28.5451 18.7694Z" fill="#29CFA8"/>
</svg>
