<svg xmlns="http://www.w3.org/2000/svg" width="15" height="15" viewBox="0 0 19 19" fill="none">
  <g clip-path="url(#clip0_2007_959)">
    <path d="M9.49995 0.949951C7.23249 0.949951 5.05794 1.85097 3.45415 3.45415C1.85103 5.05802 0.949951 7.23268 0.949951 9.49995C0.949951 11.7672 1.85097 13.942 3.45415 15.5458C5.05802 17.1489 7.23268 18.05 9.49995 18.05C11.7672 18.05 13.942 17.1489 15.5458 15.5458C17.1489 13.9419 18.05 11.7672 18.05 9.49995C18.0477 7.23325 17.146 5.06022 15.5429 3.457C13.9398 1.85378 11.7667 0.952041 9.49995 0.949951ZM9.49995 16.91C7.53459 16.91 5.65017 16.1292 4.26013 14.7398C2.87076 13.3497 2.08995 11.4653 2.08995 9.49995C2.08995 7.53459 2.87074 5.65017 4.26013 4.26013C5.65025 2.87076 7.53459 2.08995 9.49995 2.08995C11.4653 2.08995 13.3497 2.87074 14.7398 4.26013C16.1291 5.65025 16.91 7.53459 16.91 9.49995C16.9077 11.4646 16.1262 13.3482 14.7367 14.7367C13.3481 16.1261 11.4644 16.9077 9.49995 16.91Z" fill="#101827"/>
    <path d="M9.49999 7.85071C9.29812 7.85071 9.10515 7.93087 8.96265 8.07337C8.82015 8.21587 8.73999 8.40883 8.73999 8.61071V13.3807C8.73999 13.8 9.07992 14.1407 9.49999 14.1407C9.92006 14.1407 10.26 13.8 10.26 13.3807V8.61071C10.26 8.40883 10.1798 8.21587 10.0373 8.07337C9.89483 7.93087 9.70187 7.85071 9.49999 7.85071Z" fill="#101827"/>
    <path d="M10.26 5.61906C10.26 6.63214 8.73999 6.63214 8.73999 5.61906C8.73999 4.60598 10.26 4.60598 10.26 5.61906Z" fill="#101827"/>
  </g>
  <defs>
    <clipPath id="clip0_2007_959">
      <rect width="19" height="19" fill="white"/>
    </clipPath>
  </defs>
</svg>