<svg width="19" height="19" viewBox="0 0 19 19" fill="none" xmlns="http://www.w3.org/2000/svg">
<g clip-path="url(#clip0_2007_684)">
<path d="M9.49995 0.950012C7.23249 0.950012 5.05794 1.85103 3.45415 3.45421C1.85103 5.05808 0.949951 7.23274 0.949951 9.50001C0.949951 11.7673 1.85097 13.942 3.45415 15.5458C5.05802 17.1489 7.23268 18.05 9.49995 18.05C11.7672 18.05 13.942 17.149 15.5458 15.5458C17.1489 13.9419 18.05 11.7673 18.05 9.50001C18.0477 7.23331 17.146 5.06028 15.5429 3.45706C13.9398 1.85384 11.7667 0.952102 9.49995 0.950012ZM9.49995 16.91C7.53459 16.91 5.65017 16.1292 4.26013 14.7398C2.87076 13.3497 2.08995 11.4654 2.08995 9.50001C2.08995 7.53465 2.87074 5.65023 4.26013 4.26019C5.65025 2.87082 7.53459 2.09001 9.49995 2.09001C11.4653 2.09001 13.3497 2.8708 14.7398 4.26019C16.1291 5.65031 16.91 7.53465 16.91 9.50001C16.9077 11.4646 16.1262 13.3483 14.7367 14.7368C13.3481 16.1262 11.4644 16.9077 9.49995 16.91Z" fill="#F5F5F5"/>
<path d="M9.49999 7.85083C9.29812 7.85083 9.10515 7.93099 8.96265 8.07349C8.82015 8.216 8.73999 8.40896 8.73999 8.61083V13.3808C8.73999 13.8001 9.07992 14.1408 9.49999 14.1408C9.92006 14.1408 10.26 13.8001 10.26 13.3808V8.61083C10.26 8.40896 10.1798 8.21599 10.0373 8.07349C9.89483 7.93099 9.70187 7.85083 9.49999 7.85083Z" fill="#F5F5F5"/>
<path d="M10.26 5.61906C10.26 6.63214 8.73999 6.63214 8.73999 5.61906C8.73999 4.60598 10.26 4.60598 10.26 5.61906Z" fill="#F5F5F5"/>
</g>
<defs>
<clipPath id="clip0_2007_684">
<rect width="19" height="19" fill="white"/>
</clipPath>
</defs>
</svg>
