<svg width="27" height="26" viewBox="0 0 27 26" fill="none" xmlns="http://www.w3.org/2000/svg">
<path d="M26.7654 23.4125L13.6663 0.861564C13.5156 0.599986 13.2973 0.382436 13.0335 0.231087C12.7698 0.0797378 12.47 0 12.1648 0C11.8595 0 11.5597 0.0797378 11.296 0.231087C11.0322 0.382436 10.8139 0.599986 10.6632 0.861564L7.38019 6.51016C7.04633 7.08735 6.87075 7.74026 6.87075 8.40462C6.87075 9.06897 7.04633 9.72188 7.38019 10.2991L11.9465 18.1984C11.9731 18.2442 11.987 18.2961 11.9869 18.3489C11.9868 18.4017 11.9727 18.4535 11.9459 18.4992C11.9191 18.545 11.8807 18.583 11.8343 18.6095C11.788 18.636 11.7355 18.6501 11.6819 18.6503H10.8639C10.7278 18.649 10.5949 18.61 10.4803 18.5377C10.3657 18.4655 10.274 18.363 10.2157 18.2419C9.7592 17.3094 9.03586 16.529 8.13477 15.9966C7.23368 15.4643 6.19421 15.2033 5.14446 15.2459C3.7333 15.3236 2.408 15.9385 1.44836 16.9609C0.48873 17.9834 -0.0301235 19.3332 0.0013528 20.7255C0.0328291 22.1178 0.612172 23.4435 1.61706 24.4228C2.62195 25.4021 3.97373 25.9583 5.38699 25.9739C6.25495 25.9722 7.10955 25.7632 7.87757 25.3648C8.64559 24.9664 9.30411 24.3904 9.79673 23.6862C10.0373 23.3421 10.3589 23.0605 10.7341 22.8657C11.1093 22.6708 11.5268 22.5685 11.9509 22.5674H13.0533C13.4875 22.5677 13.9138 22.6814 14.2887 22.8971C14.6637 23.1127 14.9739 23.4225 15.1876 23.7949L15.4434 24.2294C15.7491 24.7643 16.1931 25.2099 16.7302 25.5209C17.2674 25.8319 17.8785 25.9972 18.5015 26H25.2683C25.574 25.9967 25.8735 25.9147 26.137 25.7619C26.4005 25.6092 26.6188 25.3911 26.7702 25.1295C26.9216 24.8678 27.0008 24.5716 27 24.2703C26.9991 23.9691 26.9183 23.6734 26.7654 23.4125Z" fill="#29CFA8"/>
</svg>
